<svg width="22" height="23" viewBox="0 0 22 23" fill="none" xmlns="http://www.w3.org/2000/svg">
<g clip-path="url(#clip0_52_70)">
<path fill-rule="evenodd" clip-rule="evenodd" d="M0.128418 11.5155C0.128418 8.69087 1.25051 5.9819 3.24784 3.98457C5.24518 1.98723 7.95414 0.865143 10.7788 0.865143C13.6035 0.865143 16.3124 1.98723 18.3098 3.98457C20.3071 5.9819 21.4292 8.69087 21.4292 11.5155C21.4292 14.3402 20.3071 17.0491 18.3098 19.0465C16.3124 21.0438 13.6035 22.1659 10.7788 22.1659C7.95414 22.1659 5.24518 21.0438 3.24784 19.0465C1.25051 17.0491 0.128418 14.3402 0.128418 11.5155H0.128418ZM10.171 16.0739L16.3028 8.40845L15.1952 7.52234L9.96653 14.056L6.26304 10.9702L5.35421 12.0608L10.171 16.0753V16.0739Z" fill="#949494"/>
</g>
<defs>
<clipPath id="clip0_52_70">
<rect width="21.3008" height="21.3008" fill="white" transform="translate(0.128418 0.865143)"/>
</clipPath>
</defs>
</svg>
